<svg xmlns="http://www.w3.org/2000/svg" width="180" height="37" viewBox="0 0 180 37"><g fill="#53565A"><path d="M171.002 27.445V15.865C171.002 12.955 168.642 10.595 165.732 10.595C162.822 10.595 160.492 12.265 159.392 14.665C158.852 12.335 156.752 10.595 154.262 10.595C151.642 10.595 149.262 12.055 148.062 14.355V11.175H144.982V27.435H148.062V19.295C148.062 16.035 150.712 13.385 153.972 13.385C155.332 13.385 156.442 14.495 156.442 15.855V27.435H159.522V19.295C159.522 16.025 162.162 13.385 165.432 13.385C166.802 13.385 167.902 14.495 167.902 15.855V27.435H170.982L171.002 27.445Z"></path><path d="M139.002 11.185V19.035C139.002 22.295 136.352 24.945 133.092 24.945C131.732 24.945 130.622 23.835 130.622 22.475V11.185H127.542V22.475C127.542 25.375 129.902 27.745 132.812 27.745C135.432 27.745 137.812 26.285 139.012 23.985V27.455H142.092V11.185H139.012H139.002Z"></path><path d="M124.342 3.92499H121.252V27.445H124.342V3.92499Z"></path><path d="M117.082 3.92499H113.992V27.445H117.082V3.92499Z"></path><path d="M107.422 11.185V19.035C107.422 22.295 104.772 24.945 101.512 24.945C100.152 24.945 99.0422 23.835 99.0422 22.475V11.185H95.9622V22.475C95.9622 25.375 98.3222 27.745 101.232 27.745C103.852 27.745 106.232 26.285 107.432 23.985V27.455H110.512V11.185H107.432H107.422Z"></path><path d="M88.4722 13.315C90.5922 13.315 92.2022 14.035 93.3422 14.755V11.875C92.3622 11.355 90.8222 10.605 88.3022 10.605C83.2622 10.605 79.7722 14.235 79.7722 19.175C79.7722 24.115 83.2722 27.745 88.3022 27.745C90.7722 27.745 92.3522 27.005 93.3422 26.485V23.645C92.3222 24.255 90.6522 25.025 88.4722 25.025C85.1722 25.025 82.8822 22.605 82.8822 19.175C82.8822 15.745 85.2022 13.325 88.4722 13.325V13.315Z"></path><path d="M78.0421 18.225V19.825H65.6721V19.855C65.7721 23.055 68.0721 25.085 71.5021 25.085C73.7221 25.085 76.0421 24.435 77.4221 23.545V26.325C76.1421 27.045 73.9521 27.735 71.3121 27.735C66.1421 27.735 62.6521 24.235 62.6521 19.165C62.6521 14.095 66.1521 10.595 70.6621 10.595C75.4721 10.595 78.0521 14.195 78.0521 18.215L78.0421 18.225ZM70.6221 13.155C67.8121 13.155 65.9621 15.315 65.7021 17.665H75.0321C75.0621 15.315 73.5321 13.155 70.6221 13.155Z"></path><path d="M53.7521 20.345C50.3221 19.395 47.9321 18.155 47.9321 15.215C47.9321 12.505 50.8221 10.605 54.8321 10.605C56.9121 10.605 58.9521 11.065 60.2621 11.585V14.335C58.8721 13.715 56.9521 13.195 55.2121 13.195C53.0121 13.195 51.1421 13.845 51.1421 15.325C51.1421 16.635 52.6321 17.255 55.2521 17.975C59.3321 19.115 61.3421 20.395 61.3421 23.145C61.3421 26.125 58.4921 27.755 54.3321 27.755C51.8321 27.755 49.5921 27.295 48.0521 26.675V23.895C49.9421 24.675 52.4021 25.235 54.2121 25.235C56.2121 25.235 58.1721 24.645 58.1721 23.105C58.1721 21.695 56.6021 21.145 53.7521 20.355V20.345Z"></path><path d="M38.6721 17.715C38.5921 16.505 38.4021 15.325 38.1121 14.195L31.1921 14.305L36.1821 9.475C35.5821 8.435 34.8921 7.465 34.1121 6.565L22.9621 17.715H38.6721ZM21.0221 37.875C22.6421 37.765 24.2021 37.455 25.6821 36.975L25.5721 32.555L28.5921 35.735C30.0021 34.985 31.3121 34.075 32.4821 33.005L20.9721 21.495L21.0121 37.875H21.0221ZM33.8121 31.675C34.8721 30.505 35.7921 29.195 36.5321 27.775L33.3521 24.755L37.7621 24.865C38.2521 23.385 38.5521 21.825 38.6621 20.205H22.3021L33.8021 31.675H33.8121ZM10.2821 35.385L15.1221 30.385L15.0121 37.325C16.1521 37.615 17.3221 37.805 18.5321 37.885V22.155L7.37207 33.315C8.27207 34.095 9.24207 34.785 10.2821 35.385Z"></path></g><g fill="#FFC600"><path d="M16.3121 0.305L16.4021 10.735L9.08211 3.285C8.75211 3.505 8.43211 3.745 8.12211 3.985L17.4821 13.345V0.125C17.0921 0.175 16.7021 0.235 16.3121 0.305ZM29.9721 2.975L23.8721 9.225L23.9721 0.465C23.3521 0.325 22.7221 0.215 22.0821 0.135V13.555L31.5321 4.095C31.0321 3.695 30.5121 3.325 29.9721 2.975ZM4.76211 7.335C4.52211 7.645 4.29211 7.965 4.06211 8.295L11.5121 15.615L1.09211 15.525C1.02211 15.915 0.962109 16.305 0.912109 16.695H14.1221L4.76211 7.335ZM1.26211 23.175L10.0121 23.075L3.77211 29.175C4.12211 29.715 4.49211 30.235 4.89211 30.735L14.3421 21.285H0.922109C1.00211 21.925 1.11211 22.555 1.25211 23.175H1.26211Z"></path></g></svg>